Coordinates
version=1
nRows=17
nColumns=24
inDegrees=yes

Units are S.I. units (second, meters, Newtons, ...)
Angles are in degrees.

endheader
time	pelvis_tilt	pelvis_list	pelvis_rotation	pelvis_tx	pelvis_ty	pelvis_tz	hip_flexion_r	hip_adduction_r	hip_rotation_r	knee_angle_r	ankle_angle_r	subtalar_angle_r	mtp_angle_r	hip_flexion_l	hip_adduction_l	hip_rotation_l	knee_angle_l	ankle_angle_l	subtalar_angle_l	mtp_angle_l	lumbar_extension	lumbar_bending	lumbar_rotation
      4.66000000	      4.18670278	      1.65963156	      6.19264475	     -1.40862621	      0.87871588	      0.22945848	    -30.14131829	      3.67565177	     -7.79663992	    -10.34835183	     14.09902390	      9.08991942	      0.00000000	     19.20985155	      6.99008782	      5.12203459	     -8.63972838	      1.89809367	    -10.25958009	      0.00000000	    -29.43872246	     -0.18656941	     -1.18481897
      4.67000000	      4.05897827	      2.06685985	      6.89572179	     -1.39166153	      0.87725159	      0.22678763	    -29.18020676	      3.16315729	     -9.32966803	    -13.51225901	     12.10068673	      9.85582646	      0.00000000	     20.77024679	      7.78287118	      3.58235554	    -12.84882967	      3.18583281	     -8.70205158	      0.00000000	    -29.43475074	     -0.52210705	     -1.76994201
      4.68000000	      4.03791872	      2.34747439	      7.48711570	     -1.37493009	      0.87614012	      0.22440483	    -28.05007954	      2.67454144	    -10.37880472	    -16.99475265	      9.52923200	     10.10788698	      0.00000000	     22.20508794	      8.32687429	      2.41555797	    -17.12291881	      4.88727951	     -7.22625219	      0.00000000	    -29.59546574	     -0.77381396	     -2.15084854
      4.69000000	      4.21782329	      2.57022969	      7.89201983	     -1.35835230	      0.87553414	      0.22232689	    -26.86500410	      2.14916021	    -10.91277267	    -20.74985883	      6.48616063	      9.99716599	      0.00000000	     23.22638398	      8.74311323	      1.82652331	    -21.13723189	      6.78748714	     -6.30644592	      0.00000000	    -30.00303165	     -1.01175303	     -2.39497358
      4.70000000	      4.55815077	      2.74409319	      8.09912901	     -1.34194837	      0.87539425	      0.22052397	    -25.56018617	      1.57795713	    -11.05244771	    -24.78652196	      3.24164515	      9.69512398	      0.00000000	     23.79830313	      9.06945132	      1.63697225	    -24.73065758	      8.83597217	     -5.77794746	      0.00000000	    -30.59184554	     -1.23880712	     -2.54228013
      4.71000000	      5.00437416	      2.86887063	      8.03293416	     -1.32575749	      0.87569454	      0.21907881	    -24.06338694	      0.92581390	    -10.85619775	    -29.09721197	      0.09262062	      9.34251292	      0.00000000	     23.92795105	      9.24933509	      1.48322265	    -27.77721870	     10.91761189	     -5.35918925	      0.00000000	    -31.28634858	     -1.48821575	     -2.48249723
      4.72000000	      5.42943685	      2.96951527	      7.71965121	     -1.30974795	      0.87628932	      0.21792049	    -22.29090859	      0.18497225	    -10.38729701	    -33.59248063	     -2.59517142	      9.08551526	      0.00000000	     23.68367614	      9.33103257	      1.30659637	    -30.15414033	     12.98799901	     -5.06970434	      0.00000000	    -31.91489198	     -1.79172404	     -2.36017839
      4.73000000	      5.75741083	      3.08641026	      7.16690374	     -1.29392787	      0.87713573	      0.21704268	    -20.21345294	     -0.65597359	     -9.66943990	    -38.16982112	     -4.55599996	      8.93770293	      0.00000000	     23.13071141	      9.34345047	      0.97808295	    -31.81532909	     14.96997134	     -4.81588503	      0.00000000	    -32.37090361	     -2.19692755	     -2.24930782
      4.74000000	      5.94177364	      3.24336751	      6.40177075	     -1.27829395	      0.87823860	      0.21643386	    -17.85227394	     -1.57859139	     -8.74755659	    -42.67571524	     -5.61030728	      8.88335039	      0.00000000	     22.33379704	      9.31146051	      0.42734718	    -32.76510176	     16.77944220	     -4.56588212	      0.00000000	    -32.60435560	     -2.72348120	     -2.18978427
      4.75000000	      5.98841653	      3.44289034	      5.48452642	     -1.26284033	      0.87965569	      0.21603862	    -15.27763724	     -2.52640465	     -7.67802171	    -46.95591651	     -5.71580273	      8.87024295	      0.00000000	     21.33154236	      9.26210736	     -0.32315900	    -33.06805159	     18.36935831	     -4.30669737	      0.00000000	    -32.61654156	     -3.33938182	     -2.20745604
      4.76000000	      5.91785919	      3.66026951	      4.50074232	     -1.24756801	      0.88144006	      0.21576483	    -12.56280902	     -3.42687533	     -6.55169589	    -50.87991828	     -4.93479814	      8.87919605	      0.00000000	     20.16651974	      9.21429820	     -1.18457802	    -32.82778674	     19.71872183	     -4.04126459	      0.00000000	    -32.43041617	     -3.97362882	     -2.31186158
      4.77000000	      5.76719929	      3.86203858	      3.54186889	     -1.23248499	      0.88364760	      0.21550906	     -9.79173478	     -4.21043783	     -5.46122088	    -54.34527863	     -3.45430137	      8.85556433	      0.00000000	     18.86680402	      9.17638000	     -2.05162868	    -32.15848197	     20.79245551	     -3.79339462	      0.00000000	    -32.10333535	     -4.54300794	     -2.53043159
      4.78000000	      5.54386831	      4.00555644	      2.71162639	     -1.21758712	      0.88625703	      0.21512989	     -7.01409143	     -4.82129027	     -4.51989700	    -57.28747264	     -1.45250074	      8.79248148	      0.00000000	     17.48187787	      9.15961967	     -2.75059659	    -31.16882524	     21.60268686	     -3.58297583	      0.00000000	    -31.65488005	     -4.95461109	     -2.85003500
      4.79000000	      5.25031030	      4.05602631	      2.10209255	     -1.20288039	      0.88921728	      0.21449673	     -4.26761010	     -5.23589037	     -3.83891476	    -59.67893262	      0.84372731	      8.65674082	      0.00000000	     16.05989345	      9.15630833	     -3.15690246	    -29.95583574	     22.12900063	     -3.44941584	      0.00000000	    -31.10935440	     -5.13150426	     -3.26494934
      4.80000000	      4.95346105	      4.02223619	      1.70822055	     -1.18838690	      0.89252621	      0.21362038	     -1.63277465	     -5.49202062	     -3.43064334	    -61.53337306	      3.15409547	      8.46205000	      0.00000000	     14.56378297	      9.15752303	     -3.28007701	    -28.58040924	     22.40220651	     -3.48295077	      0.00000000	    -30.58698372	     -5.09756082	     -3.82482847
      4.81000000	      4.60515339	      3.90258164	      1.58974190	     -1.17407023	      0.89602449	      0.21240864	      0.91251058	     -5.62058969	     -3.36663150	    -62.86411601	      5.39621629	      8.16927866	      0.00000000	     13.05888590	      9.16773541	     -3.02910421	    -27.08036096	     22.42933060	     -3.61157622	      0.00000000	    -30.03014224	     -4.83358550	     -4.47395985
      4.82000000	      4.19300153	      3.64836800	      1.70561877	     -1.15995321	      0.89959441	      0.21092179	      3.38964947	     -5.58430183	     -3.58382782	    -63.70187653	      7.41480689	      7.77417658	      0.00000000	     11.58351806	      9.11132797	     -2.41740754	    -25.48755370	     22.16994873	     -4.09255153	      0.00000000	    -29.44333192	     -4.31968776	     -5.17899489
